<svg width="2543" height="2155" viewBox="0 0 2543 2155" fill="none" xmlns="http://www.w3.org/2000/svg">
<g opacity="0.14">
<line x1="2606" y1="83.5" x2="-43" y2="83.4998" stroke="#B7D0FF" stroke-dasharray="5 5"/>
<line x1="2606" y1="169.5" x2="-43" y2="169.5" stroke="#B7D0FF" stroke-dasharray="5 5"/>
<line x1="2606" y1="256.5" x2="-43" y2="256.5" stroke="#B7D0FF" stroke-dasharray="5 5"/>
<line x1="2606" y1="342.5" x2="-43" y2="342.5" stroke="#B7D0FF" stroke-dasharray="5 5"/>
<line x1="2606" y1="429.5" x2="-43" y2="429.5" stroke="#B7D0FF" stroke-dasharray="5 5"/>
<line x1="2606" y1="516.5" x2="-43" y2="516.5" stroke="#B7D0FF" stroke-dasharray="5 5"/>
<line x1="2606" y1="602.5" x2="-43" y2="602.5" stroke="#B7D0FF" stroke-dasharray="5 5"/>
<line x1="2606" y1="689.5" x2="-43" y2="689.5" stroke="#B7D0FF" stroke-dasharray="5 5"/>
<line x1="2606" y1="775.5" x2="-43" y2="775.5" stroke="#B7D0FF" stroke-dasharray="5 5"/>
<line x1="2606" y1="862.5" x2="-43" y2="862.5" stroke="#B7D0FF" stroke-dasharray="5 5"/>
<line x1="2606" y1="949.5" x2="-43" y2="949.5" stroke="#B7D0FF" stroke-dasharray="5 5"/>
<line x1="2606" y1="1035.5" x2="-43" y2="1035.5" stroke="#B7D0FF" stroke-dasharray="5 5"/>
<line x1="2606" y1="1122.5" x2="-43" y2="1122.5" stroke="#B7D0FF" stroke-dasharray="5 5"/>
<line x1="2606" y1="1208.5" x2="-43" y2="1208.5" stroke="#B7D0FF" stroke-dasharray="5 5"/>
<line x1="2606" y1="1295.5" x2="-43" y2="1295.5" stroke="#B7D0FF" stroke-dasharray="5 5"/>
<line x1="2606" y1="1382.5" x2="-43" y2="1382.5" stroke="#B7D0FF" stroke-dasharray="5 5"/>
<line x1="2606" y1="1468.5" x2="-43" y2="1468.5" stroke="#B7D0FF" stroke-dasharray="5 5"/>
<line x1="2606" y1="1555.5" x2="-43" y2="1555.5" stroke="#B7D0FF" stroke-dasharray="5 5"/>
<line x1="2606" y1="1641.5" x2="-43" y2="1641.5" stroke="#B7D0FF" stroke-dasharray="5 5"/>
<line x1="2606" y1="1728.5" x2="-43" y2="1728.5" stroke="#B7D0FF" stroke-dasharray="5 5"/>
<line x1="2606" y1="1815.5" x2="-43" y2="1815.5" stroke="#B7D0FF" stroke-dasharray="5 5"/>
<line x1="2606" y1="1901.5" x2="-43" y2="1901.5" stroke="#B7D0FF" stroke-dasharray="5 5"/>
<line x1="2606" y1="1988.5" x2="-43" y2="1988.5" stroke="#B7D0FF" stroke-dasharray="5 5"/>
<line x1="2606" y1="2074.5" x2="-43" y2="2074.5" stroke="#B7D0FF" stroke-dasharray="5 5"/>
<line x1="1683.22" y1="2213" x2="1683.22" y2="-55.9998" stroke="#B7D0FF" stroke-dasharray="5 5"/>
<line x1="2214.5" y1="2213" x2="2214.5" y2="-55.9998" stroke="#B7D0FF" stroke-dasharray="5 5"/>
<line x1="1594.68" y1="2213" x2="1594.68" y2="-55.9998" stroke="#B7D0FF" stroke-dasharray="5 5"/>
<line x1="2126.25" y1="2213" x2="2126.25" y2="-55.9998" stroke="#B7D0FF" stroke-dasharray="5 5"/>
<line x1="1506.13" y1="2213" x2="1506.13" y2="-55.9998" stroke="#B7D0FF" stroke-dasharray="5 5"/>
<line x1="2037.7" y1="2213" x2="2037.7" y2="-55.9998" stroke="#B7D0FF" stroke-dasharray="5 5"/>
<line x1="1417.58" y1="2213" x2="1417.58" y2="-55.9998" stroke="#B7D0FF" stroke-dasharray="5 5"/>
<line x1="1949.15" y1="2213" x2="1949.15" y2="-55.9998" stroke="#B7D0FF" stroke-dasharray="5 5"/>
<line x1="2480.43" y1="2213" x2="2480.43" y2="-55.9998" stroke="#B7D0FF" stroke-dasharray="5 5"/>
<line x1="1329.04" y1="2213" x2="1329.04" y2="-55.9998" stroke="#B7D0FF" stroke-dasharray="5 5"/>
<line x1="1860.6" y1="2213" x2="1860.6" y2="-55.9998" stroke="#B7D0FF" stroke-dasharray="5 5"/>
<line x1="2391.88" y1="2213" x2="2391.88" y2="-55.9998" stroke="#B7D0FF" stroke-dasharray="5 5"/>
<line x1="1240.48" y1="2213" x2="1240.48" y2="-55.9998" stroke="#B7D0FF" stroke-dasharray="5 5"/>
<line x1="1772.05" y1="2213" x2="1772.05" y2="-55.9998" stroke="#B7D0FF" stroke-dasharray="5 5"/>
<line x1="2303.33" y1="2213" x2="2303.33" y2="-55.9998" stroke="#B7D0FF" stroke-dasharray="5 5"/>
<line x1="1151.93" y1="2213" x2="1151.93" y2="-55.9998" stroke="#B7D0FF" stroke-dasharray="5 5"/>
<line x1="1063.38" y1="2213" x2="1063.38" y2="-55.9998" stroke="#B7D0FF" stroke-dasharray="5 5"/>
<line x1="974.836" y1="2213" x2="974.836" y2="-55.9998" stroke="#B7D0FF" stroke-dasharray="5 5"/>
<line x1="886.289" y1="2213" x2="886.289" y2="-55.9998" stroke="#B7D0FF" stroke-dasharray="5 5"/>
<line x1="797.727" y1="2213" x2="797.727" y2="-55.9998" stroke="#B7D0FF" stroke-dasharray="5 5"/>
<line x1="709.184" y1="2213" x2="709.184" y2="-55.9998" stroke="#B7D0FF" stroke-dasharray="5 5"/>
<line x1="620.633" y1="2213" x2="620.633" y2="-55.9998" stroke="#B7D0FF" stroke-dasharray="5 5"/>
<line x1="532.086" y1="2213" x2="532.086" y2="-55.9998" stroke="#B7D0FF" stroke-dasharray="5 5"/>
<line x1="443.539" y1="2213" x2="443.539" y2="-55.9998" stroke="#B7D0FF" stroke-dasharray="5 5"/>
<line x1="354.984" y1="2213" x2="354.985" y2="-55.9998" stroke="#B7D0FF" stroke-dasharray="5 5"/>
<line x1="266.438" y1="2213" x2="266.438" y2="-55.9998" stroke="#B7D0FF" stroke-dasharray="5 5"/>
<line x1="177.887" y1="2213" x2="177.887" y2="-55.9998" stroke="#B7D0FF" stroke-dasharray="5 5"/>
<line x1="89.3438" y1="2213" x2="89.344" y2="-55.9998" stroke="#B7D0FF" stroke-dasharray="5 5"/>
<line x1="0.792969" y1="2213" x2="0.79322" y2="-55.9998" stroke="#B7D0FF" stroke-dasharray="5 5"/>
</g>
</svg>
